<?xml version="1.0" encoding="iso-8859-1"?>
<!-- Generator: Adobe Illustrator 19.0.0, SVG Export Plug-In . SVG Version: 6.00 Build 0)  -->
<svg version="1.1" id="Capa_1" xmlns="http://www.w3.org/2000/svg" xmlns:xlink="http://www.w3.org/1999/xlink" x="0px" y="0px"
	 viewBox="0 0 491.52 491.52" style="enable-background:new 0 0 491.52 491.52;" xml:space="preserve">
<circle style="fill:#45B39C;" cx="245.76" cy="245.76" r="245.76"/>
<path style="opacity:0.1;enable-background:new    ;" d="M491.289,254.898L379.802,143.411c-1.997-2.56-5.12-4.198-8.602-4.198
	H115.917c-6.042,0-10.957,4.915-10.957,10.957v191.18c0,3.174,1.331,6.042,3.533,7.987l142.061,142.061
	C381.012,488.893,486.533,384.792,491.289,254.898z"/>
<path style="fill:#FCD462;" d="M371.212,139.202H115.92c-6.052,0-10.96,4.907-10.96,10.96v191.196c0,6.053,4.908,10.96,10.96,10.96
	h255.292c6.053,0,10.961-4.907,10.961-10.96V150.162C382.172,144.109,377.265,139.202,371.212,139.202z"/>
<g>
	<path style="fill:#DC8744;" d="M359.737,339.517h-6.21v-5.12h6.205c0.885-0.003,1.74-0.258,2.48-0.74l2.8,4.285
		C363.447,338.97,361.622,339.515,359.737,339.517z M343.217,339.517h-10.315v-5.12h10.315V339.517z M322.592,339.517h-10.31v-5.12
		h10.31V339.517z M301.967,339.517h-10.31v-5.12h10.31V339.517z M281.348,339.517h-10.315v-5.12h10.315V339.517z M260.723,339.517
		h-10.31v-5.12h10.31V339.517z M240.102,339.517h-10.315v-5.12h10.315V339.517z M219.477,339.517h-10.31v-5.12h10.31V339.517z
		 M198.852,339.517h-10.31v-5.12h10.31V339.517z M178.232,339.517h-10.315v-5.12h10.315V339.517z M157.607,339.517h-10.31v-5.12
		h10.31V339.517z M136.982,339.517h-9.58c-0.335,0-0.67-0.017-0.995-0.052l0.53-5.09l10.045,0.022V339.517z M117.762,329.962
		v-10.395h5.12v10.313L117.762,329.962z M369.372,326.585h-5.12v-10.313h5.12V326.585z M122.882,309.258h-5.12v-10.313h5.12V309.258
		z M369.372,305.962h-5.12V295.65h5.12V305.962z M122.882,288.633h-5.12v-10.31h5.12V288.633z M369.372,285.337h-5.12v-10.31h5.12
		V285.337z M122.882,268.01h-5.12v-10.313h5.12V268.01z M369.372,264.715h-5.12v-10.31h5.12V264.715z M122.882,247.387h-5.12
		v-10.313h5.12V247.387z M369.372,244.092h-5.12V233.78h5.12V244.092z M122.882,226.762h-5.12v-10.31h5.12V226.762z M369.372,223.47
		h-5.12v-10.313h5.12V223.47z M122.882,206.14h-5.12v-10.313h5.12V206.14z M369.372,202.845h-5.12v-10.31h5.12V202.845z
		 M122.882,185.518h-5.12v-10.313h5.12V185.518z M369.372,182.222h-5.12V171.91h5.12V182.222z M122.882,164.895h-5.12v-3.255
		c0-3.277,1.645-6.303,4.4-8.092l2.79,4.295c-1.295,0.84-2.07,2.26-2.07,3.798V164.895z M364.253,161.615
		c-0.015-2.3-1.745-4.217-4.025-4.465l0.55-5.09c4.875,0.527,8.57,4.622,8.595,9.525L364.253,161.615z M350.193,157.122h-10.31
		v-5.12h10.31V157.122z M329.568,157.122h-10.31v-5.12h10.31V157.122z M308.947,157.122h-10.315v-5.12h10.315V157.122z
		 M288.322,157.122h-10.31v-5.12h10.31V157.122z M267.697,157.122h-10.31v-5.12h10.31V157.122z M247.077,157.122h-10.315v-5.12
		h10.315V157.122z M226.452,157.122h-10.31v-5.12h10.31V157.122z M205.827,157.122h-10.31v-5.12h10.31V157.122z M185.207,157.122
		h-10.315v-5.12h10.315V157.122z M164.582,157.122h-10.31v-5.12h10.31V157.122z M143.958,157.122h-10.31v-5.12h10.31V157.122z"/>
	<path style="fill:#DC8744;" d="M384.401,225.814h-45.998c-11.315,0-20.43,9.422-19.926,20.848
		c0.48,10.888,10.329,19.043,21.227,19.043H384.4c1.193,0,2.159-0.967,2.159-2.159v-35.573
		C386.56,226.781,385.593,225.814,384.401,225.814z"/>
</g>
<circle style="fill:#64798A;" cx="338.28" cy="245.76" r="14.228"/>
<path style="fill:#3A556A;" d="M345.236,237.366c0.818,1.534,1.324,3.258,1.324,5.117c0,6.049-4.904,10.953-10.953,10.953
	c-2.658,0-5.061-0.985-6.958-2.559c1.842,3.457,5.439,5.836,9.629,5.836c6.049,0,10.952-4.904,10.952-10.953
	C349.231,242.368,347.658,239.375,345.236,237.366z"/>
<g>
</g>
<g>
</g>
<g>
</g>
<g>
</g>
<g>
</g>
<g>
</g>
<g>
</g>
<g>
</g>
<g>
</g>
<g>
</g>
<g>
</g>
<g>
</g>
<g>
</g>
<g>
</g>
<g>
</g>
</svg>
